Coordinates
version=1
nRows=10
nColumns=40
inDegrees=yes

Units are S.I. units (second, meters, Newtons, ...)
Angles are in degrees.

endheader
time	pelvis_tilt	pelvis_list	pelvis_rotation	pelvis_tx	pelvis_ty	pelvis_tz	hip_flexion_r	hip_adduction_r	hip_rotation_r	knee_angle_r	knee_angle_r_beta	ankle_angle_r	subtalar_angle_r	mtp_angle_r	hip_flexion_l	hip_adduction_l	hip_rotation_l	knee_angle_l	knee_angle_l_beta	ankle_angle_l	subtalar_angle_l	mtp_angle_l	lumbar_extension	lumbar_bending	lumbar_rotation	arm_flex_r	arm_add_r	arm_rot_r	elbow_flex_r	pro_sup_r	wrist_flex_r	wrist_dev_r	arm_flex_l	arm_add_l	arm_rot_l	elbow_flex_l	pro_sup_l	wrist_flex_l	wrist_dev_l
     37.35000000	     -3.38738492	     -6.11170240	     -0.09759737	      1.10009933	      0.91331930	      0.47783851	     24.61041941	      2.25770605	    -12.70164701	     25.31447950	     25.31447950	      5.44642682	     -4.81976990	     -2.92666872	      4.70202152	    -14.44355664	     -6.93134095	     48.83265063	     48.83265063	      4.83047433	    -17.77938834	    -11.74367106	    -10.35808572	      8.39515032	      2.42728917	    -11.90676573	     -9.07572782	    -10.46506357	     21.51665319	     46.33934109	      0.00000000	      0.00000000	     20.73621268	    -15.39150105	     -7.30006858	     94.49598790	     48.04614442	      0.00000000	      0.00000000
     37.36114286	     -3.47532135	     -6.13811732	      0.26897333	      1.09994654	      0.91455266	      0.47991792	     23.97003157	      2.37411033	    -12.91409183	     25.16073815	     25.16073815	      6.20870264	     -4.77623640	     -2.60743306	      7.37274047	    -14.54877409	     -5.16142266	     53.20239940	     53.20239940	      5.75711399	    -17.63092344	     -2.76518860	    -10.21287630	      8.31204371	      2.43204687	    -10.74375579	     -9.38961637	     -9.92985182	     22.72571443	     46.28319642	      0.00000000	      0.00000000	     19.88944196	    -14.47123799	     -7.15502798	     91.47089651	     48.00819913	      0.00000000	      0.00000000
     37.37228571	     -3.38720285	     -6.35543651	      0.65707791	      1.09959633	      0.91586444	      0.48206973	     23.08112336	      2.71472259	    -13.26604122	     24.83048214	     24.83048214	      6.65879593	     -4.78562472	     -2.65752863	      9.53944308	    -15.09533552	     -3.97263425	     56.53151780	     56.53151780	      4.05240257	    -18.22993443	     -1.89918474	    -10.45804056	      8.42417967	      2.37877729	     -9.11003607	     -9.74075047	     -9.92538581	     23.50938834	     46.26790542	      0.00000000	      0.00000000	     18.52155012	    -13.85138699	     -6.65497597	     90.15025739	     47.94651027	      0.00000000	      0.00000000
     37.38342857	     -3.53218589	     -6.37175748	      1.08526982	      1.09894259	      0.91703389	      0.48378739	     22.39013710	      2.81722719	    -13.58219487	     24.37940225	     24.37940225	      7.06635024	     -4.67713042	     -2.69857067	     12.31342369	    -15.02213378	     -2.33581769	     60.12211437	     60.12211437	      5.53511595	    -18.06404659	      6.58058602	    -10.28129420	      8.37866126	      2.56986442	     -8.21917836	    -10.12840240	     -9.78586617	     25.46673149	     46.21029600	      0.00000000	      0.00000000	     18.03927720	    -13.16817308	     -5.90911123	     86.00393874	     47.85688052	      0.00000000	      0.00000000
     37.39457143	     -3.54884547	     -6.48936539	      1.53728283	      1.09821245	      0.91828271	      0.48553262	     21.55109927	      3.06338186	    -13.88683392	     23.87426087	     23.87426087	      7.41157699	     -4.68470590	     -2.72225751	     14.61751810	    -15.24412630	     -1.18718045	     62.67699527	     62.67699527	      4.93911462	    -18.42733619	      8.07591629	    -10.31036336	      8.39511700	      2.24862298	     -6.46849026	    -10.50122850	     -9.85061802	     26.63605746	     46.18872127	      0.00000000	      0.00000000	     16.97666392	    -12.65666190	     -5.66510499	     82.89370757	     47.78606668	      0.00000000	      0.00000000
     37.40571429	     -3.64338481	     -6.68525746	      2.00718860	      1.09730860	      0.91936714	      0.48717300	     20.76133462	      3.39502210	    -14.25047639	     23.26296085	     23.26296085	      7.70091197	     -4.64816335	     -2.68952501	     17.00735616	    -15.52450325	     -0.12238978	     64.79858630	     64.79858630	      4.57414908	    -18.71624820	      8.75654834	    -10.31277005	      8.47764726	      2.14377293	     -4.74759933	    -10.89355082	     -9.93127316	     27.63045127	     46.17017772	      0.00000000	      0.00000000	     15.74469629	    -12.04927769	     -5.20771064	     80.75311893	     47.71059151	      0.00000000	      0.00000000
     37.41685714	     -3.66378332	     -6.68083836	      2.43799995	      1.09624992	      0.92066116	      0.48855265	     19.93667089	      3.52233537	    -14.47196287	     22.72286367	     22.72286367	      7.93205083	     -4.67247224	     -2.76805723	     19.31807999	    -15.43498083	      0.84460742	     66.57877849	     66.57877849	      5.70023181	    -18.78184672	     12.60705249	    -10.31027462	      8.38657525	      2.73209317	     -3.64369790	    -11.35353674	    -10.21446281	     29.51939587	     46.12651418	      0.00000000	      0.00000000	     16.11570844	    -10.82138854	     -4.61976163	     74.74794534	     47.57924350	      0.00000000	      0.00000000
     37.42800000	     -3.67968884	     -6.72179363	      2.89586710	      1.09511424	      0.92187214	      0.48987996	     19.09604599	      3.71418344	    -14.68653431	     22.12634088	     22.12634088	      8.16458801	     -4.71436749	     -2.76098398	     21.51327955	    -15.45273175	      1.59802356	     67.73120677	     67.73120677	      6.39087576	    -18.89281206	     14.30840469	    -10.38626726	      8.33390732	      2.93634495	     -2.32106787	    -11.78605789	    -10.77551289	     31.68036615	     46.08863443	      0.00000000	      0.00000000	     15.71711103	    -10.21153434	     -3.59963270	     70.48458810	     47.44548510	      0.00000000	      0.00000000
     37.43914286	     -3.69325190	     -6.74349328	      3.35395450	      1.09392357	      0.92306075	      0.49109097	     18.24757673	      3.89598460	    -14.87414342	     21.52015994	     21.52015994	      8.40171434	     -4.78328433	     -2.71432772	     23.57264226	    -15.44004755	      2.17330576	     68.26403827	     68.26403827	      7.13841631	    -19.01086881	     15.27344102	    -10.44672144	      8.22574147	      3.09622265	     -0.77015783	    -12.22409428	    -11.28924607	     33.66901085	     46.05237152	      0.00000000	      0.00000000	     15.32248903	     -9.57614336	     -2.85554077	     66.09233620	     47.32660552	      0.00000000	      0.00000000
     37.45028571	     -3.67986715	     -6.74510335	      3.82305965	      1.09264975	      0.92424345	      0.49221046	     17.36155400	      4.06756973	    -15.04526419	     20.87179450	     20.87179450	      8.64488160	     -4.84253612	     -2.61083030	     25.48015324	    -15.41888474	      2.56631216	     68.20787060	     68.20787060	      7.69834444	    -19.10362530	     15.41384130	    -10.59482695	      8.08988397	      2.47926919	      1.52589764	    -12.51987522	    -11.50278269	     35.23439512	     46.01896861	      0.00000000	      0.00000000	     13.97772521	     -9.54257763	     -2.40235280	     63.30776948	     47.24112249	      0.00000000	      0.00000000
